<svg width="28" height="36" viewBox="0 0 28 36" fill="none" xmlns="http://www.w3.org/2000/svg">
    <path d="M6.78938 0.527466C6.04329 0.527466 5.39623 1.07102 5.08086 1.74762C4.7655 2.42422 4.64 3.27138 4.64 4.32004C4.64 5.03502 4.69298 5.69296 4.80032 6.29129C4.79667 6.30088 4.79205 6.30988 4.78844 6.3195L4.57024 6.89989C4.11343 8.11831 3.88 9.40785 3.88 10.7088V11.5504C3.88 12.6143 4.22417 13.599 4.8018 14.4064C2.51346 15.1606 0.799927 17.4028 0.799927 19.9179C0.799927 21.3995 1.28675 22.7638 2.10172 23.8351C1.78205 25.458 1.6 26.9746 1.6 28.26C1.6 29.4002 1.93128 30.4101 2.50547 31.2466C2.41483 31.6088 2.36 32.0045 2.36 32.44C2.36 33.3267 2.66144 34.2511 3.45844 34.7824C4.25544 35.3137 5.33667 35.48 6.92 35.48C8.50334 35.48 9.54866 35.3005 10.2999 34.9249C10.4909 34.8294 10.66 34.7115 10.8076 34.579L10.8031 34.6473C11.5155 34.6974 12.2501 34.72 13 34.72C13.775 34.72 14.5295 34.6904 15.2637 34.6369C15.3945 34.7452 15.5382 34.844 15.7001 34.9249C16.4514 35.3005 17.4967 35.48 19.08 35.48C20.6633 35.48 21.7446 35.3137 22.5416 34.7824C23.3386 34.2511 23.64 33.3267 23.64 32.44C23.64 32.0111 23.5871 31.6208 23.499 31.2629C24.076 30.4239 24.4 29.4038 24.4 28.26C24.4 25.862 23.7976 22.6511 22.7598 19.4547C23.9473 18.5135 24.7991 16.9658 25.4539 15.3831C26.1648 13.6648 26.5916 11.9533 26.6548 10.7162C26.9971 10.44 27.2334 10.0351 27.3598 9.57621L27.3643 9.55692L27.3688 9.53762C27.7859 7.64296 26.4036 5.73549 24.4 5.22551C23.9147 5.10199 23.4262 5.05753 22.9542 5.08895C22.4822 5.12037 22.0263 5.22851 21.6079 5.41254C21.5038 5.45831 21.4037 5.51038 21.3051 5.56692C21.341 5.17084 21.36 4.75502 21.36 4.32004C21.36 3.27138 21.2345 2.42422 20.9191 1.74762C20.6038 1.07102 19.9567 0.527466 19.2106 0.527466C17.8202 0.527466 16.5614 1.27076 15.6348 2.08309C15.4362 2.06491 15.2387 2.04004 15.0366 2.04004H10.9634C10.7577 2.04004 10.5539 2.05242 10.3519 2.07122C9.42639 1.26349 8.17316 0.527466 6.78938 0.527466ZM6.78938 2.04747C7.27209 2.04747 7.85762 2.26668 8.4118 2.57293C7.5613 2.93167 6.79947 3.46304 6.16743 4.13598C6.18506 3.32136 6.30741 2.71273 6.45836 2.38887C6.62104 2.03985 6.66907 2.04747 6.78938 2.04747ZM19.2106 2.04747C19.3309 2.04747 19.379 2.03985 19.5416 2.38887C19.6918 2.71111 19.8139 3.31572 19.8326 4.12411C19.203 3.45508 18.443 2.92631 17.5971 2.56848C18.1488 2.26484 18.7304 2.04747 19.2106 2.04747ZM10.9634 3.56004H15.0366C17.1551 3.56004 19.0449 4.86913 19.7881 6.85239V6.85387L19.9068 7.16856C19.8749 7.25281 19.8421 7.33684 19.8177 7.42536L19.8133 7.44465L19.8088 7.46395C19.6159 8.33998 19.9539 9.18675 20.5317 9.70387C20.5713 10.0429 20.6 10.3788 20.6 10.7088V11.5504C20.6 13.4434 19.0825 14.96 17.1904 14.96H8.80961C6.9166 14.96 5.4 13.4425 5.4 11.5504V10.7088C5.4 9.58989 5.60088 8.48216 5.99375 7.43426L6.21196 6.85387C6.95589 4.87029 8.84488 3.56004 10.9634 3.56004ZM23.0552 6.60747C23.3623 6.58712 23.6916 6.61478 24.0245 6.6995C25.2878 7.02104 26.0776 8.26349 25.8814 9.1977C25.8193 9.40091 25.7536 9.49318 25.6988 9.53614C25.64 9.58228 25.5511 9.6234 25.3559 9.63707C24.9657 9.66441 24.2372 9.51021 23.3788 9.30161C22.5597 9.10257 21.8995 8.85254 21.5782 8.60543C21.2661 8.36538 21.1992 8.26231 21.2917 7.81872C21.4249 7.35146 21.7367 7.01577 22.2195 6.8034C22.4632 6.69617 22.7481 6.62781 23.0552 6.60747ZM9.2 7.36004C8.33867 7.36004 7.57143 7.78296 7.08032 8.41395C7.01451 8.49223 6.96518 8.58299 6.93528 8.68078C6.90538 8.77858 6.89552 8.8814 6.90629 8.9831C6.91706 9.0848 6.94825 9.18327 6.99798 9.27263C7.04771 9.362 7.11496 9.4404 7.1957 9.50316C7.27645 9.56592 7.36903 9.61173 7.4679 9.63787C7.56677 9.664 7.66989 9.66992 7.7711 9.65526C7.87231 9.6406 7.96952 9.60566 8.05691 9.55255C8.1443 9.49943 8.22007 9.42923 8.27969 9.34614C8.49842 9.06512 8.84534 8.88004 9.2 8.88004C9.55467 8.88004 9.90159 9.06512 10.1203 9.34614C10.1799 9.42923 10.2557 9.49943 10.3431 9.55255C10.4305 9.60566 10.5277 9.6406 10.6289 9.65526C10.7301 9.66992 10.8332 9.664 10.9321 9.63787C11.031 9.61173 11.1236 9.56592 11.2043 9.50316C11.2851 9.4404 11.3523 9.362 11.402 9.27263C11.4518 9.18327 11.4829 9.0848 11.4937 8.9831C11.5045 8.8814 11.4946 8.77858 11.4647 8.68078C11.4348 8.58299 11.3855 8.49223 11.3197 8.41395C10.8286 7.78296 10.0613 7.36004 9.2 7.36004ZM16.8 7.36004C15.9387 7.36004 15.1714 7.78296 14.6803 8.41395C14.6145 8.49223 14.5652 8.58299 14.5353 8.68078C14.5054 8.77858 14.4955 8.8814 14.5063 8.9831C14.5171 9.0848 14.5482 9.18327 14.598 9.27263C14.6477 9.362 14.715 9.4404 14.7957 9.50316C14.8764 9.56592 14.969 9.61173 15.0679 9.63787C15.1668 9.664 15.2699 9.66992 15.3711 9.65526C15.4723 9.6406 15.5695 9.60566 15.6569 9.55255C15.7443 9.49943 15.8201 9.42923 15.8797 9.34614C16.0984 9.06512 16.4453 8.88004 16.8 8.88004C17.1547 8.88004 17.5016 9.06512 17.7203 9.34614C17.7799 9.42923 17.8557 9.49943 17.9431 9.55255C18.0305 9.60566 18.1277 9.6406 18.2289 9.65526C18.3301 9.66992 18.4332 9.664 18.5321 9.63787C18.631 9.61173 18.7236 9.56592 18.8043 9.50316C18.8851 9.4404 18.9523 9.362 19.002 9.27263C19.0518 9.18327 19.0829 9.0848 19.0937 8.9831C19.1045 8.8814 19.0946 8.77858 19.0647 8.68078C19.0348 8.58299 18.9855 8.49223 18.9197 8.41395C18.4286 7.78296 17.6613 7.36004 16.8 7.36004ZM11.48 10.4L12.1138 11.6677C11.9055 11.7903 11.5932 11.92 11.1 11.92C10.5853 11.92 10.2594 11.78 10.052 11.6529C9.8447 11.5257 9.80415 11.4599 9.80415 11.4599C9.73622 11.3677 9.64834 11.292 9.54706 11.2386C9.44579 11.1851 9.33375 11.1552 9.2193 11.1511C9.07462 11.1463 8.93155 11.1828 8.80692 11.2565C8.68229 11.3301 8.58129 11.4378 8.5158 11.5669C8.45031 11.696 8.42306 11.8412 8.43724 11.9852C8.45142 12.1293 8.50646 12.2663 8.59586 12.3802C8.59586 12.3802 8.84545 12.6944 9.2579 12.9472C9.67034 13.2001 10.2938 13.44 11.1 13.44C11.9062 13.44 12.5297 13.2001 12.9421 12.9472C12.9637 12.934 12.9793 12.9192 13 12.9057C13.0207 12.9192 13.0363 12.934 13.0579 12.9472C13.4703 13.2001 14.0938 13.44 14.9 13.44C15.7062 13.44 16.3297 13.2001 16.7421 12.9472C17.1546 12.6944 17.4041 12.3802 17.4041 12.3802C17.4695 12.3013 17.5183 12.21 17.5475 12.1118C17.5768 12.0136 17.5858 11.9105 17.5742 11.8087C17.5625 11.707 17.5305 11.6086 17.4798 11.5195C17.4292 11.4304 17.3611 11.3525 17.2796 11.2904C17.1981 11.2283 17.1049 11.1834 17.0055 11.1582C16.9062 11.1331 16.8028 11.1283 16.7016 11.1441C16.6004 11.1599 16.5034 11.1961 16.4165 11.2503C16.3296 11.3046 16.2545 11.3759 16.1959 11.4599C16.1959 11.4599 16.1553 11.5257 15.948 11.6529C15.7406 11.78 15.4147 11.92 14.9 11.92C14.4068 11.92 14.0945 11.7903 13.8862 11.6677L14.52 10.4H11.48ZM22.1126 10.5232C22.4045 10.6169 22.7052 10.7022 23.0195 10.7786C23.7417 10.9541 24.4173 11.1297 25.0902 11.1497C24.9488 12.1057 24.5888 13.4981 24.0497 14.8012C23.5515 16.0053 22.881 17.1295 22.2106 17.8635C21.8179 16.8098 21.373 15.7801 20.8939 14.7908C21.6548 13.9228 22.12 12.7901 22.12 11.5504V10.7088C22.12 10.6462 22.1139 10.5855 22.1126 10.5232ZM5.40149 15.8239C5.42608 15.9265 5.44689 16.0295 5.47868 16.1312C4.89963 16.7508 4.65024 17.6054 4.69493 18.4483C4.71974 18.9163 4.8475 19.3936 5.14024 19.808C5.43298 20.2225 5.90915 20.5499 6.47469 20.663L6.54891 20.6779H6.62313C7.67705 20.6779 8.58993 21.5907 8.58993 22.6447C8.58993 23.6986 7.67705 24.6114 6.62313 24.6114C4.25509 24.6114 2.31993 22.5796 2.31993 19.9179C2.31993 18.0751 3.71808 16.3367 5.40149 15.8239ZM7.14563 16.1832C7.66677 16.3716 8.22507 16.48 8.80961 16.48H13H17.1904C17.7743 16.48 18.3322 16.3712 18.8529 16.1832C18.5872 16.6641 18.1636 17.0985 17.3463 17.4909L17.3403 17.4939L17.3344 17.4954C17.0788 17.6233 16.172 17.8069 15.1078 17.9065C14.7665 17.0745 13.9485 16.48 13 16.48C12.0515 16.48 11.2335 17.0745 10.8922 17.9065C9.82774 17.8067 8.9218 17.6249 8.66563 17.4968L8.65969 17.4939L8.65524 17.4909C7.83656 17.098 7.41127 16.6646 7.14563 16.1832ZM20.1873 16.9075C21.853 20.8642 22.88 25.416 22.88 28.26C22.88 28.7794 22.7983 29.2299 22.6484 29.6346C22.6182 29.6017 22.5934 29.5588 22.5623 29.5277C21.944 28.9094 21.2333 28.64 20.6 28.64C19.2067 28.64 17.7851 29.2814 16.6382 30.1155C15.5038 30.9405 14.5452 31.9131 14.5245 33.16C14.0266 33.1844 13.5203 33.2 13 33.2C12.476 33.2 11.9762 33.1744 11.4756 33.1496C11.4495 31.9078 10.493 30.9382 9.3618 30.1155C8.21492 29.2814 6.79334 28.64 5.4 28.64C4.76667 28.64 4.05597 28.9094 3.43766 29.5277C3.40781 29.5576 3.38362 29.5986 3.35454 29.6301C3.20512 29.226 3.12 28.7785 3.12 28.26C3.12 27.3594 3.22389 26.2781 3.4154 25.1043C4.33274 25.7512 5.43283 26.1314 6.62313 26.1314C8.53017 26.1314 10.1099 24.5517 10.1099 22.6447C10.1099 20.7888 8.61089 19.2544 6.77305 19.1727C6.5596 19.13 6.46891 19.0564 6.38118 18.9322C6.29344 18.808 6.22625 18.6082 6.21344 18.3667C6.20089 18.13 6.25442 17.8666 6.33961 17.6349C6.75725 18.1036 7.29588 18.5237 7.99469 18.8595C8.70999 19.2147 9.68984 19.3523 10.8358 19.4354C11.1281 20.3582 11.9862 21.04 13 21.04C14.0145 21.04 14.8739 20.3576 15.1657 19.4339C16.3131 19.35 17.2934 19.2136 18.0098 18.8565C19.05 18.3556 19.761 17.6783 20.1873 16.9075ZM13 18C13.4287 18 13.76 18.3313 13.76 18.76C13.76 19.1888 13.4287 19.52 13 19.52C12.5713 19.52 12.24 19.1888 12.24 18.76C12.24 18.3313 12.5713 18 13 18ZM5.4 30.16C6.28667 30.16 7.52509 30.6587 8.46821 31.3446C9.41132 32.0305 9.96 32.9467 9.96 33.2C9.96 33.3267 10.0088 33.3708 9.62008 33.5652C9.23135 33.7596 8.37667 33.96 6.92 33.96C5.46334 33.96 4.64457 33.7464 4.30157 33.5177C3.95857 33.289 3.88 33.0734 3.88 32.44C3.88 31.4689 4.18066 30.9341 4.51235 30.6024C4.84404 30.2707 5.27334 30.16 5.4 30.16ZM20.6 30.16C20.7267 30.16 21.156 30.2707 21.4877 30.6024C21.8194 30.9341 22.12 31.4689 22.12 32.44C22.12 33.0734 22.0414 33.289 21.6984 33.5177C21.3554 33.7464 20.5367 33.96 19.08 33.96C17.6233 33.96 16.7687 33.7596 16.3799 33.5652C15.9912 33.3708 16.04 33.3267 16.04 33.2C16.04 32.9467 16.5887 32.0305 17.5318 31.3446C18.4749 30.6587 19.7133 30.16 20.6 30.16Z" fill="white"/>
</svg>
