<svg width="43" height="43" viewBox="0 0 43 43" fill="none" xmlns="http://www.w3.org/2000/svg">
    <path fill-rule="evenodd" clip-rule="evenodd" d="M21.5 41.2083C10.6154 41.2083 1.79166 32.3846 1.79166 21.5C1.79166 10.6153 10.6154 1.79163 21.5 1.79163C32.3846 1.79163 41.2083 10.6153 41.2083 21.5C41.2083 32.3846 32.3846 41.2083 21.5 41.2083ZM34.7574 30.6816C36.5654 28.0759 37.625 24.9117 37.625 21.5C37.625 12.5944 30.4056 5.37496 21.5 5.37496C12.5944 5.37496 5.37499 12.5944 5.37499 21.5C5.37499 24.9117 6.43455 28.076 8.24256 30.6816C10.259 28.0182 14.9973 26.875 21.5 26.875C28.0027 26.875 32.741 28.0182 34.7574 30.6816ZM32.1867 33.5754C31.6623 31.6898 27.8951 30.4583 21.5 30.4583C15.1048 30.4583 11.3377 31.6898 10.8133 33.5754C13.6584 36.0952 17.4005 37.625 21.5 37.625C25.5994 37.625 29.3416 36.0952 32.1867 33.5754ZM21.5 10.75C17.1625 10.75 14.3333 13.8957 14.3333 17.9166C14.3333 24.0573 17.4882 26.875 21.5 26.875C25.4741 26.875 28.6667 24.1509 28.6667 18.275C28.6667 14.1928 25.8254 10.75 21.5 10.75ZM17.9167 17.9166C17.9167 21.9824 19.3826 23.2916 21.5 23.2916C23.61 23.2916 25.0833 22.0346 25.0833 18.275C25.0833 16.0361 23.678 14.3333 21.5 14.3333C19.2313 14.3333 17.9167 15.795 17.9167 17.9166Z" fill="black"/>
</svg>
