<svg width="40" height="40" viewBox="0 0 40 40" fill="none" xmlns="http://www.w3.org/2000/svg">
<path fill-rule="evenodd" clip-rule="evenodd" d="M16.6667 5H23.3333C25.1743 5 26.6667 6.49238 26.6667 8.33333V10H33.3333C35.1743 10 36.6667 11.4924 36.6667 13.3333V31.6667C36.6667 33.5077 35.1743 35 33.3333 35H6.66666C4.82571 35 3.33333 33.5077 3.33333 31.6667V13.3333C3.33333 11.4924 4.82571 10 6.66666 10H13.3333V8.33333C13.3333 6.49238 14.8257 5 16.6667 5ZM6.66666 13.3333H13.3333H26.6667H33.3333V21.6667H21.6667H18.3333H6.66666V13.3333ZM6.66666 31.6667V25H18.3333V26.6667H21.6667V25H33.3333V31.6667H6.66666ZM23.3333 8.33333V10H16.6667V8.33333H23.3333Z" fill="white"/>
</svg>
